<?xml version="1.0" ?><svg viewBox="0 0 512 512" xmlns="http://www.w3.org/2000/svg"><title/><g data-name="1" id="_1"><path d="M441.13,195.36h-372a15,15,0,0,1-8-27.69l186-117.36a15,15,0,0,1,16,0l186,117.36a15,15,0,0,1-8,27.69ZM121,165.36H389.25L255.13,80.74Z"/><path d="M167.21,388.64h-57a15,15,0,0,1-15-15V180.36a15,15,0,0,1,15-15h57a15,15,0,0,1,15,15V373.64A15,15,0,0,1,167.21,388.64Zm-42-30h27V195.36h-27Z"/><path d="M283.64,388.64h-57a15,15,0,0,1-15-15V180.36a15,15,0,0,1,15-15h57a15,15,0,0,1,15,15V373.64A15,15,0,0,1,283.64,388.64Zm-42-30h27V195.36h-27Z"/><path d="M400.06,388.64h-57a15,15,0,0,1-15-15V180.36a15,15,0,0,1,15-15h57a15,15,0,0,1,15,15V373.64A15,15,0,0,1,400.06,388.64Zm-42-30h27V195.36h-27Z"/><path d="M441.13,450h-372a15,15,0,0,1-15-15V373.64a15,15,0,0,1,15-15h372a15,15,0,0,1,15,15V435A15,15,0,0,1,441.13,450Zm-357-30h342V388.64h-342Z"/></g></svg>