<?xml version="1.0" ?><svg style="enable-background:new 0 0 512 512;" version="1.1" viewBox="0 0 512 512" xml:space="preserve" xmlns="http://www.w3.org/2000/svg" xmlns:xlink="http://www.w3.org/1999/xlink"><g id="Layer_1"/><g id="Layer_2"><g><g><path d="M416.2,431H95.8c-15,0-27.3-12.2-27.3-27.3V143.2c0-15,12.2-27.3,27.3-27.3h320.5c15,0,27.3,12.2,27.3,27.3v260.5     C443.5,418.8,431.3,431,416.2,431z M95.8,130.9c-6.8,0-12.3,5.5-12.3,12.3v260.5c0,6.8,5.5,12.3,12.3,12.3h320.5     c6.8,0,12.3-5.5,12.3-12.3V143.2c0-6.8-5.5-12.3-12.3-12.3H95.8z"/></g><g><path d="M436,209.9H76c-4.1,0-7.5-3.4-7.5-7.5s3.4-7.5,7.5-7.5h360c4.1,0,7.5,3.4,7.5,7.5S440.2,209.9,436,209.9z"/></g><g><g><g><path d="M164.1,293.4h-36.1c-4.1,0-7.5-3.4-7.5-7.5v-36.1c0-4.1,3.4-7.5,7.5-7.5h36.1c4.1,0,7.5,3.4,7.5,7.5v36.1       C171.6,290,168.2,293.4,164.1,293.4z M135.4,278.4h21.1v-21.1h-21.1V278.4z"/></g><g><path d="M237.4,293.4h-36.1c-4.1,0-7.5-3.4-7.5-7.5v-36.1c0-4.1,3.4-7.5,7.5-7.5h36.1c4.1,0,7.5,3.4,7.5,7.5v36.1       C244.9,290,241.5,293.4,237.4,293.4z M208.8,278.4h21.1v-21.1h-21.1V278.4z"/></g><g><path d="M310.7,293.4h-36.1c-4.1,0-7.5-3.4-7.5-7.5v-36.1c0-4.1,3.4-7.5,7.5-7.5h36.1c4.1,0,7.5,3.4,7.5,7.5v36.1       C318.2,290,314.9,293.4,310.7,293.4z M282.1,278.4h21.1v-21.1h-21.1V278.4z"/></g><g><path d="M384.1,293.4h-36.1c-4.1,0-7.5-3.4-7.5-7.5v-36.1c0-4.1,3.4-7.5,7.5-7.5h36.1c4.1,0,7.5,3.4,7.5,7.5v36.1       C391.6,290,388.2,293.4,384.1,293.4z M355.4,278.4h21.1v-21.1h-21.1V278.4z"/></g></g><g><g><path d="M164.1,383.7h-36.1c-4.1,0-7.5-3.4-7.5-7.5v-36.1c0-4.1,3.4-7.5,7.5-7.5h36.1c4.1,0,7.5,3.4,7.5,7.5v36.1       C171.6,380.3,168.2,383.7,164.1,383.7z M135.4,368.7h21.1v-21.1h-21.1V368.7z"/></g><g><path d="M237.4,383.7h-36.1c-4.1,0-7.5-3.4-7.5-7.5v-36.1c0-4.1,3.4-7.5,7.5-7.5h36.1c4.1,0,7.5,3.4,7.5,7.5v36.1       C244.9,380.3,241.5,383.7,237.4,383.7z M208.8,368.7h21.1v-21.1h-21.1V368.7z"/></g><g><path d="M310.7,383.7h-36.1c-4.1,0-7.5-3.4-7.5-7.5v-36.1c0-4.1,3.4-7.5,7.5-7.5h36.1c4.1,0,7.5,3.4,7.5,7.5v36.1       C318.2,380.3,314.9,383.7,310.7,383.7z M282.1,368.7h21.1v-21.1h-21.1V368.7z"/></g><g><path d="M384.1,383.7h-36.1c-4.1,0-7.5-3.4-7.5-7.5v-36.1c0-4.1,3.4-7.5,7.5-7.5h36.1c4.1,0,7.5,3.4,7.5,7.5v36.1       C391.6,380.3,388.2,383.7,384.1,383.7z M355.4,368.7h21.1v-21.1h-21.1V368.7z"/></g></g></g><g><g><path d="M197.3,162.5H146c-4.1,0-7.5-3.4-7.5-7.5V88.5c0-4.1,3.4-7.5,7.5-7.5h51.3c4.1,0,7.5,3.4,7.5,7.5V155      C204.8,159.2,201.5,162.5,197.3,162.5z M153.5,147.5h36.3V96h-36.3V147.5z"/></g><g><path d="M366,162.5h-51.3c-4.1,0-7.5-3.4-7.5-7.5V88.5c0-4.1,3.4-7.5,7.5-7.5H366c4.1,0,7.5,3.4,7.5,7.5V155      C373.5,159.2,370.1,162.5,366,162.5z M322.2,147.5h36.3V96h-36.3V147.5z"/></g></g></g></g></svg>